<mxfile host="app.diagrams.net" modified="2022-02-24T10:48:18.200Z" agent="5.0 (Macintosh; Intel Mac OS X 10_15_7) AppleWebKit/537.36 (KHTML, like Gecko) Chrome/98.0.4758.102 Safari/537.36" etag="-bNoZhyD-1YDSYYyemxN" version="16.6.3" type="github">
  <diagram id="aIgHxNktMJGkpLHd3vlj" name="Page-1">
    <mxGraphModel dx="848" dy="589" grid="1" gridSize="10" guides="1" tooltips="1" connect="1" arrows="1" fold="1" page="1" pageScale="1" pageWidth="827" pageHeight="1169" math="0" shadow="0">
      <root>
        <mxCell id="0" />
        <mxCell id="1" parent="0" />
        <mxCell id="N4l285Vz226aUWx1NJi6-14" value="&lt;b&gt;startRecord&lt;/b&gt;&amp;nbsp;&lt;br&gt;producerId,peerId,roomId" style="endArrow=classic;html=1;rounded=0;" edge="1" parent="1">
          <mxGeometry width="50" height="50" relative="1" as="geometry">
            <mxPoint x="40" y="160" as="sourcePoint" />
            <mxPoint x="200" y="160" as="targetPoint" />
          </mxGeometry>
        </mxCell>
        <mxCell id="N4l285Vz226aUWx1NJi6-16" value="" style="group" vertex="1" connectable="0" parent="1">
          <mxGeometry x="320" y="90" width="80" height="450" as="geometry" />
        </mxCell>
        <mxCell id="N4l285Vz226aUWx1NJi6-8" value="" style="endArrow=none;html=1;rounded=0;" edge="1" parent="N4l285Vz226aUWx1NJi6-16">
          <mxGeometry width="50" height="50" relative="1" as="geometry">
            <mxPoint x="40" y="450" as="sourcePoint" />
            <mxPoint x="40" y="30" as="targetPoint" />
          </mxGeometry>
        </mxCell>
        <mxCell id="N4l285Vz226aUWx1NJi6-9" value="录制服务器" style="text;html=1;strokeColor=none;fillColor=none;align=center;verticalAlign=middle;whiteSpace=wrap;rounded=0;" vertex="1" parent="N4l285Vz226aUWx1NJi6-16">
          <mxGeometry width="80" height="30" as="geometry" />
        </mxCell>
        <mxCell id="N4l285Vz226aUWx1NJi6-21" value="&lt;b&gt;startRecord&amp;nbsp;&lt;/b&gt;" style="endArrow=classic;html=1;rounded=0;" edge="1" parent="N4l285Vz226aUWx1NJi6-16">
          <mxGeometry width="50" height="50" relative="1" as="geometry">
            <mxPoint x="-120" y="80" as="sourcePoint" />
            <mxPoint x="40" y="80" as="targetPoint" />
          </mxGeometry>
        </mxCell>
        <mxCell id="N4l285Vz226aUWx1NJi6-22" value="id" style="endArrow=none;html=1;rounded=0;startArrow=classic;startFill=1;endFill=0;" edge="1" parent="N4l285Vz226aUWx1NJi6-16">
          <mxGeometry width="50" height="50" relative="1" as="geometry">
            <mxPoint x="-120" y="120" as="sourcePoint" />
            <mxPoint x="40" y="120" as="targetPoint" />
          </mxGeometry>
        </mxCell>
        <mxCell id="N4l285Vz226aUWx1NJi6-28" value="&lt;b&gt;pauseRecord&lt;/b&gt;&amp;nbsp;" style="endArrow=classic;html=1;rounded=0;" edge="1" parent="N4l285Vz226aUWx1NJi6-16">
          <mxGeometry width="50" height="50" relative="1" as="geometry">
            <mxPoint x="-120" y="200" as="sourcePoint" />
            <mxPoint x="40" y="200" as="targetPoint" />
          </mxGeometry>
        </mxCell>
        <mxCell id="N4l285Vz226aUWx1NJi6-23" value="" style="group" vertex="1" connectable="0" parent="1">
          <mxGeometry x="160" y="90" width="80" height="450" as="geometry" />
        </mxCell>
        <mxCell id="N4l285Vz226aUWx1NJi6-24" value="" style="endArrow=none;html=1;rounded=0;" edge="1" parent="N4l285Vz226aUWx1NJi6-23">
          <mxGeometry width="50" height="50" relative="1" as="geometry">
            <mxPoint x="40" y="450" as="sourcePoint" />
            <mxPoint x="40" y="30" as="targetPoint" />
          </mxGeometry>
        </mxCell>
        <mxCell id="N4l285Vz226aUWx1NJi6-25" value="信令服务器" style="text;html=1;strokeColor=none;fillColor=none;align=center;verticalAlign=middle;whiteSpace=wrap;rounded=0;" vertex="1" parent="N4l285Vz226aUWx1NJi6-23">
          <mxGeometry width="80" height="30" as="geometry" />
        </mxCell>
        <mxCell id="N4l285Vz226aUWx1NJi6-27" value="&lt;b&gt;pauseRecord&lt;/b&gt;&amp;nbsp;" style="endArrow=classic;html=1;rounded=0;" edge="1" parent="N4l285Vz226aUWx1NJi6-23">
          <mxGeometry width="50" height="50" relative="1" as="geometry">
            <mxPoint x="-120" y="190" as="sourcePoint" />
            <mxPoint x="40" y="190" as="targetPoint" />
          </mxGeometry>
        </mxCell>
        <mxCell id="N4l285Vz226aUWx1NJi6-38" value="&lt;b&gt;pauseRecord&lt;/b&gt;&amp;nbsp;" style="endArrow=classic;html=1;rounded=0;" edge="1" parent="N4l285Vz226aUWx1NJi6-23">
          <mxGeometry width="50" height="50" relative="1" as="geometry">
            <mxPoint x="40" y="400" as="sourcePoint" />
            <mxPoint x="200" y="400" as="targetPoint" />
          </mxGeometry>
        </mxCell>
        <mxCell id="N4l285Vz226aUWx1NJi6-39" value="&lt;b&gt;pauseRecord&lt;/b&gt;&amp;nbsp;" style="endArrow=classic;html=1;rounded=0;" edge="1" parent="N4l285Vz226aUWx1NJi6-23">
          <mxGeometry width="50" height="50" relative="1" as="geometry">
            <mxPoint x="-120" y="390" as="sourcePoint" />
            <mxPoint x="40" y="390" as="targetPoint" />
          </mxGeometry>
        </mxCell>
        <mxCell id="N4l285Vz226aUWx1NJi6-40" value="id" style="endArrow=none;html=1;rounded=0;startArrow=classic;startFill=1;endFill=0;" edge="1" parent="N4l285Vz226aUWx1NJi6-23">
          <mxGeometry width="50" height="50" relative="1" as="geometry">
            <mxPoint x="40" y="430" as="sourcePoint" />
            <mxPoint x="200" y="430" as="targetPoint" />
          </mxGeometry>
        </mxCell>
        <mxCell id="N4l285Vz226aUWx1NJi6-34" value="id" style="endArrow=none;html=1;rounded=0;startArrow=classic;startFill=1;endFill=0;" edge="1" parent="1">
          <mxGeometry width="50" height="50" relative="1" as="geometry">
            <mxPoint x="200" y="320" as="sourcePoint" />
            <mxPoint x="360" y="320" as="targetPoint" />
          </mxGeometry>
        </mxCell>
        <mxCell id="N4l285Vz226aUWx1NJi6-35" value="&lt;b&gt;resumeRecord&lt;/b&gt;" style="endArrow=classic;html=1;rounded=0;" edge="1" parent="1">
          <mxGeometry width="50" height="50" relative="1" as="geometry">
            <mxPoint x="200" y="410" as="sourcePoint" />
            <mxPoint x="360" y="410" as="targetPoint" />
          </mxGeometry>
        </mxCell>
        <mxCell id="N4l285Vz226aUWx1NJi6-36" value="&lt;b&gt;resumeRecord&lt;/b&gt;" style="endArrow=classic;html=1;rounded=0;" edge="1" parent="1">
          <mxGeometry width="50" height="50" relative="1" as="geometry">
            <mxPoint x="40" y="400" as="sourcePoint" />
            <mxPoint x="200" y="400" as="targetPoint" />
          </mxGeometry>
        </mxCell>
        <mxCell id="N4l285Vz226aUWx1NJi6-37" value="id" style="endArrow=none;html=1;rounded=0;startArrow=classic;startFill=1;endFill=0;" edge="1" parent="1">
          <mxGeometry width="50" height="50" relative="1" as="geometry">
            <mxPoint x="200" y="440" as="sourcePoint" />
            <mxPoint x="360" y="440" as="targetPoint" />
          </mxGeometry>
        </mxCell>
      </root>
    </mxGraphModel>
  </diagram>
</mxfile>
